<svg id="Layer_1" data-name="Layer 1" xmlns="http://www.w3.org/2000/svg" viewBox="0 0 34.72 29.11"><defs><style>.cls-1{fill:none;stroke:#ededed;stroke-miterlimit:10;stroke-width:0.75px;}</style></defs><path class="cls-1" d="M16.05,25.43c.52,3.52-7.66,3.63-8.36-1.7h0a3.48,3.48,0,0,1-4.07-5.18h0c-1.95-1.34-1.91-5.22.12-6.39-1.54-1.65.31-6.25,4-5.48a0,0,0,0,0,0,0c-1-3.7,4.45-6.69,8.25-3.73Z"/><path class="cls-1" d="M7.72,5.86a4.16,4.16,0,0,0,3.4,3.24"/><path class="cls-1" d="M11.12,4.62C10.73,7.09,14.88,8.13,16,6.53"/><path class="cls-1" d="M9.05,8.27A3.31,3.31,0,0,1,7.22,10.5"/><path class="cls-1" d="M6.48,13.32c1,.52,1,2,2.15,2.33s1.79-.93,2.25-1.82a2.87,2.87,0,0,1,3.3-1.67,7.6,7.6,0,0,1,1.66.58"/><path class="cls-1" d="M5.32,13.24c.79,1,2.06-.47,1.24-1.33"/><path class="cls-1" d="M16.09,18.38c-1.09-1.09-2.78.13-3.15,1.31-.43,1.38.88,2.51.42,3.86a1.47,1.47,0,0,1-1.75,1"/><path class="cls-1" d="M7.72,24.42C6.44,21.08,12.77,22,10,17"/><path class="cls-1" d="M3.58,18.71C4,18,5.11,17.91,5.9,18a6.8,6.8,0,0,1,1.82.66"/><path class="cls-1" d="M32.56,16.13l.09-2.81h0l-2.21-.07h0a10.51,10.51,0,0,0-.62-2.18l2-1.12L30.09,6.76,27.94,7.94h0a11.48,11.48,0,0,0-1.54-1.5l1.28-2.17L24.55,2.41,23.22,4.65h0a11.41,11.41,0,0,0-2-.52h0V2.34a.84.84,0,0,0-.84-.84h-.13a.84.84,0,0,0-.84.84V27.09a.85.85,0,0,0,.84.84h.13a.85.85,0,0,0,.84-.84V27a.85.85,0,0,1,.68-.83l.66-.17a.83.83,0,0,1,1,.39l.06.12a.84.84,0,0,0,1.14.34l1.73-.92a.84.84,0,0,0,.35-1.14l-.1-.19a.83.83,0,0,1,.2-1c.22-.21.44-.42.65-.64a.84.84,0,0,1,1.08-.15l.21.13A.84.84,0,0,0,30,22.64L31.06,21a.84.84,0,0,0-.26-1.16l-.37-.23a.84.84,0,0,1-.34-1c.1-.33.19-.66.27-1a.85.85,0,0,1,.85-.69l.48,0A.85.85,0,0,0,32.56,16.13Z"/><path class="cls-1" d="M19.4,6.74V9.25l5,5a1.22,1.22,0,0,1,.38,1,5.46,5.46,0,0,1-5.42,5h0v2.51a8,8,0,0,0,0-15.94Z"/></svg>