<svg id="Layer_1" data-name="Layer 1" xmlns="http://www.w3.org/2000/svg" viewBox="0 0 42.89 27.06"><defs><style>.cls-1{fill:none;stroke:#c5a363;stroke-miterlimit:10;stroke-width:0.75px;}</style></defs><polygon class="cls-1" points="23.86 9.27 23.2 1.21 21.96 1.21 20.71 1.21 20.05 9.27 23.86 9.27"/><path class="cls-1" d="M38.51,22.47A18.47,18.47,0,0,0,31.9,8.15,15.91,15.91,0,0,0,28.36,6L28,3.63a14.77,14.77,0,0,0-4.71-1.32l.57,7H20.05l.58-7a12,12,0,0,0-4.71,1.35L15.5,6a17.57,17.57,0,0,0-9,10.18A19.23,19.23,0,0,0,5.4,22.47H38.51"/><line class="cls-1" x1="28" y1="3.63" x2="29.26" y2="11.8"/><line class="cls-1" x1="14.46" y1="11.8" x2="15.92" y2="3.63"/><path class="cls-1" d="M9.27,14.85S7.59,17.79,7.72,20H18.07"/><path class="cls-1" d="M38.7,22.47H5.24s-1.51.05-1.49,2.37H40.17C40.18,22.52,38.7,22.47,38.7,22.47Z"/></svg>